<?xml version="1.0" standalone="no"?>
<!DOCTYPE svg PUBLIC "-//W3C//DTD SVG 20010904//EN"
 "http://www.w3.org/TR/2001/REC-SVG-20010904/DTD/svg10.dtd">
<svg version="1.0" xmlns="http://www.w3.org/2000/svg"
 width="500.000000pt" height="500.000000pt" viewBox="0 0 500.000000 500.000000"
 preserveAspectRatio="xMidYMid meet">

<g transform="translate(0.000000,500.000000) scale(0.100000,-0.100000)"
fill="#000000" stroke="none">
<path d="M323 2896 c-101 -25 -164 -107 -148 -193 12 -66 64 -105 180 -137
117 -32 145 -47 145 -81 0 -38 -35 -55 -115 -55 -54 0 -83 6 -124 25 -30 14
-55 24 -56 23 -1 -2 -12 -23 -24 -46 -21 -42 -22 -44 -4 -57 40 -30 128 -50
218 -50 80 0 96 4 141 29 68 37 98 89 92 157 -8 82 -49 114 -192 150 -88 22
-136 49 -136 75 0 8 11 26 25 39 37 38 124 34 226 -9 12 -5 21 5 36 42 l21 50
-36 16 c-37 16 -139 37 -177 35 -11 0 -43 -6 -72 -13z"/>
<path d="M920 2896 c-66 -14 -90 -27 -142 -74 -58 -52 -80 -103 -86 -195 -4
-72 -2 -82 28 -143 37 -76 97 -126 175 -146 32 -8 68 -29 105 -60 88 -76 182
-97 265 -59 65 29 72 45 41 86 l-27 35 -26 -20 c-31 -24 -90 -26 -122 -4 l-23
16 50 29 c58 33 97 76 126 139 27 61 27 168 -1 231 -57 128 -213 199 -363 165z
m179 -133 c50 -37 71 -81 71 -146 0 -103 -55 -170 -152 -183 -59 -8 -125 21
-163 70 -55 72 -40 198 29 251 60 46 158 49 215 8z"/>
<path d="M3889 2900 c-61 -10 -116 -40 -160 -87 -55 -57 -72 -98 -77 -186 -4
-72 -2 -82 28 -143 22 -45 45 -75 73 -95 72 -52 105 -62 202 -63 78 0 97 3
140 26 28 14 59 35 69 47 19 21 19 22 -19 61 l-38 39 -28 -24 c-111 -93 -283
-26 -297 116 -6 64 19 131 62 164 63 48 168 49 231 1 l31 -24 38 35 c21 19 35
41 32 48 -9 25 -85 67 -143 81 -64 15 -76 15 -144 4z"/>
<path d="M1400 2717 c0 -220 11 -272 71 -329 97 -92 289 -88 381 9 50 52 58
96 58 310 l0 194 -62 -3 -63 -3 -5 -195 c-6 -215 -10 -233 -65 -256 -49 -20
-87 -17 -126 9 -50 34 -58 68 -58 270 l-1 177 -65 0 -65 0 0 -183z"/>
<path d="M2040 2616 l0 -286 65 0 65 0 0 80 0 80 63 0 62 -1 54 -79 54 -80 69
0 c53 0 67 3 62 13 -4 6 -33 48 -63 91 -35 51 -51 81 -43 84 26 8 70 53 86 86
20 42 21 125 2 169 -18 41 -61 81 -111 103 -31 13 -78 19 -202 22 l-163 4 0
-286z m310 159 c36 -19 50 -43 50 -87 0 -69 -49 -98 -167 -98 l-63 0 0 100 0
100 75 0 c48 0 87 -6 105 -15z"/>
<path d="M2577 2894 c-4 -4 -7 -29 -7 -56 l0 -48 90 0 90 0 1 -222 c1 -123 1
-226 0 -230 0 -5 30 -8 69 -8 l70 0 0 230 0 230 91 0 90 0 -3 53 -3 52 -241 3
c-132 1 -243 -1 -247 -4z"/>
<path d="M3140 2615 l0 -285 221 0 220 0 -3 53 -3 52 -152 3 -153 3 0 64 0 65
130 0 130 0 0 50 0 50 -130 0 -130 0 0 60 0 60 150 0 150 0 0 55 0 55 -215 0
-215 0 0 -285z"/>
<path d="M4276 2892 c-3 -5 -5 -133 -5 -286 l0 -276 69 0 70 0 0 115 0 115
125 0 125 0 0 -115 0 -115 65 0 65 0 0 285 0 286 -62 -3 -63 -3 -3 -112 -3
-113 -124 0 -124 0 -3 113 -3 112 -62 3 c-34 2 -64 -1 -67 -6z"/>
</g>
</svg>
