<?xml version="1.0" standalone="no"?>
<!DOCTYPE svg PUBLIC "-//W3C//DTD SVG 20010904//EN"
 "http://www.w3.org/TR/2001/REC-SVG-20010904/DTD/svg10.dtd">
<svg version="1.0" xmlns="http://www.w3.org/2000/svg"
 width="500.000000pt" height="500.000000pt" viewBox="0 0 500.000000 500.000000"
 preserveAspectRatio="xMidYMid meet">

<g transform="translate(0.000000,500.000000) scale(0.100000,-0.100000)"
fill="#000000" stroke="none">
<path d="M781 4204 l-31 -26 0 -1383 c0 -1346 1 -1383 19 -1406 l19 -24 294
-5 293 -5 5 -273 5 -273 25 -19 c24 -19 60 -20 1402 -20 l1376 0 31 26 31 26
0 1380 c0 927 -3 1386 -10 1399 -25 45 -52 49 -345 49 l-275 0 0 265 0 266
-25 24 -24 25 -1380 0 -1379 0 -31 -26z m2709 -329 l0 -225 -1024 0 -1024 0
-31 -26 -31 -26 0 -1054 0 -1054 -255 0 -255 0 0 1305 0 1305 1310 0 1310 0 0
-225z m0 -1370 l0 -1015 -995 0 -995 0 0 1015 0 1015 995 0 995 0 0 -1015z
m630 -295 l0 -1310 -1310 0 -1310 0 0 230 0 230 1037 0 1037 0 23 22 23 21 0
1059 0 1058 250 0 250 0 0 -1310z"/>
</g>
</svg>
